<?xml version="1.0" ?><svg height="256" id="fruits-banana-healthy" viewBox="0 0 256 256" width="256" xmlns="http://www.w3.org/2000/svg"><title/><path d="M228.82,90.083l-.38-17.037a2,2,0,0,0-1.78-1.95l-27.3-3.05a2,2,0,0,0-2.2,1.69l-1.8,11.938-4,.79A47.084,47.084,0,0,0,184.074,71.3C168.6,53.718,147.157,54.838,131.909,58.877a44.164,44.164,0,0,1-5.38,1.08c1.14-10.818,4.57-25.736,14.679-27.716a5.953,5.953,0,0,0,4.78-5.859V21.993a5.977,5.977,0,0,0-9-5.169c-6.4,3.7-13.989,12.648-18.648,27.086-4.23-7.429-16.069-21.057-44.886-17.567a2,2,0,0,0-1.42.87,2.037,2.037,0,0,0-.27,1.65c.08.26,6.789,23.226,35.347,23.226a60.366,60.366,0,0,0,9.219-.74,87.75,87.75,0,0,0-1.5,8.789,45.48,45.48,0,0,1-6.759-1.26C92.822,54.838,71.384,53.718,55.905,71.3,42,87.063,38.937,113.579,47.736,139.755c-.07-.02-.12-.04-.16-.05l-19.528-8.149a2,2,0,0,0-2.39.68l-9.279,12.908a2,2,0,0,0,0,2.34L26.648,161.7c5.769,11.528,12.619,18.257,19.628,23.117l-18.888-3.549a2.014,2.014,0,0,0-2.19,1.14l-6.619,14.558a2,2,0,0,0,.49,2.31l13.159,11.848C49.826,230.032,75.364,240,105.441,240a148.193,148.193,0,0,0,19.418-1.32c43.626-5.769,84.653-29.825,99.761-58.481a88.4,88.4,0,0,0,9.8-29.705,37.491,37.491,0,0,0,3.6-10.078C245.039,115.439,231.34,93.782,228.82,90.083ZM73.134,75.195a2,2,0,0,1,1.73,3.6c-.8.39-17.588,8.789-17.588,30.865a49.15,49.15,0,0,0,.69,8,2,2,0,0,1-1.64,2.3,1.84,1.84,0,0,1-.33.03,2,2,0,0,1-1.97-1.67C48.836,87.2,72.884,75.3,73.134,75.195Zm30.857,152.777a2,2,0,0,1-.03-4,141.283,141.283,0,0,0,27.268-3,2,2,0,1,1,.83,3.909,144.537,144.537,0,0,1-28.038,3.09Zm47.736-8.829a2,2,0,0,1-2.58-1.16,2,2,0,0,1,1.17-2.58c37.547-14.148,55.815-41.254,56-41.524a2,2,0,0,1,3.34,2.2C208.892,177.24,190.544,204.515,151.727,219.143ZM30.157,159.772a1.607,1.607,0,0,0-.17-.28l-9.519-13.178,7.509-10.448,18.138,7.569a.986.986,0,0,0,.16.05c.05.02.99.32,2.7.79a207.7,207.7,0,0,0,52.875,7.259h.72c38.337-.16,67.9-13.2,85.873-37.774l.5,4.219c-14.589,37.4-42.506,60.111-82.983,67.49a165.736,165.736,0,0,1-49.036,1.12C47.186,181.289,37.817,175.16,30.157,159.772ZM234.91,136.286a68.489,68.489,0,0,0-2.69-15.188,62.682,62.682,0,0,0-11.549-22.207L214.9,79.674a2.008,2.008,0,0,0-2.31-1.39l-13.059,2.57,1.3-8.619,23.648,2.64.35,15.9a2.022,2.022,0,0,0,.38,1.14C225.36,92.122,239.939,112.549,234.91,136.286Z"/></svg>